<svg width="110" height="24" viewBox="0 0 110 24" fill="none" xmlns="http://www.w3.org/2000/svg">
<path d="M88.615 11.5647C88.615 8.85238 88.615 6.14002 88.615 3.42766C88.615 1.99697 88.2871 1.57968 86.8564 1.52007C86.5286 1.49026 86.2305 1.52007 85.9026 1.54988C85.4555 1.57968 85.2767 1.37104 85.2469 0.953754C85.1873 0.0595707 85.2469 0.0297645 86.1709 0.0595706C89.9563 0.0893767 93.7714 0.0893767 97.5568 0.0595706C99.524 0.0595706 101.491 0.119183 103.369 0.864336C104.561 1.34123 105.694 1.99697 106.29 3.15941C107.303 5.0968 107.005 8.0178 104.412 9.65714C103.101 10.4619 101.73 10.9984 100.18 11.1176C100.031 11.1176 99.9115 11.2071 99.7625 11.2369C99.8817 11.2965 100.001 11.4157 100.12 11.4455C102.087 12.1012 102.922 13.7406 103.578 15.5289C104.144 17.0491 104.74 18.5394 105.485 19.9701C105.992 20.9835 107.065 20.894 107.512 19.8508C107.751 19.3143 107.78 18.5096 107.87 17.9134C107.929 17.4663 108.049 17.3769 108.585 17.4067C109.062 17.4365 109.449 17.3173 109.42 17.9134C109.36 19.6124 108.824 21.2517 107.691 22.5632C106.409 24.0535 102.803 24.0237 101.432 22.3844C100.359 21.0729 99.8817 19.6124 99.5836 18.0029C99.3452 16.751 99.0173 15.5289 98.7789 14.2771C98.6894 13.7704 98.7789 13.1445 98.2126 12.906C97.4972 12.6079 96.7521 12.3695 95.9771 12.1907C95.4704 12.0714 94.9041 12.0714 94.3974 12.131C94.1887 12.1609 93.8907 12.4589 93.8907 12.6378C93.8311 14.9626 93.8012 17.3173 93.8012 19.6422C93.8012 21.1325 94.457 21.669 95.9473 21.5796C97.0203 21.4902 97.2588 21.669 97.1395 22.4738C97.1097 22.6824 96.7819 23.0103 96.5732 23.0103C93.0561 23.0401 89.5092 23.0103 85.992 23.0103C85.4555 23.0103 85.3363 22.6824 85.3661 22.2353C85.3959 21.7882 85.5152 21.5498 86.0517 21.5498C88.6448 21.5498 88.6746 21.52 88.7044 18.897C88.6448 16.4529 88.6448 14.0088 88.615 11.5647ZM93.7714 6.28905C93.8012 6.28905 93.8012 6.28905 93.831 6.28905C93.831 7.45149 93.8012 8.64373 93.8609 9.80617C93.8609 10.0148 94.0695 10.3725 94.1887 10.4023C95.7088 10.5811 97.2289 10.4321 98.6894 9.98501C99.5538 9.71675 100.21 9.18024 100.537 8.37548C101.283 6.58711 101.67 4.79874 100.537 3.04018C100.269 2.6229 99.8221 2.146 99.4048 2.05658C98.0039 1.78833 96.5732 1.60949 95.1723 1.54988C94.1589 1.49026 93.8609 1.87774 93.831 2.89115C93.7416 4.02378 93.7714 5.15642 93.7714 6.28905Z" fill="black"/>
<path d="M34.0106 9.71688C34.0106 11.8629 33.951 14.0388 34.0404 16.1848C34.0702 17.2578 34.2788 18.3308 34.6365 19.3443C35.3221 21.2816 36.9614 21.8778 38.869 22.0566C42.4755 22.3547 44.7408 19.9702 44.9196 16.7213C45.1581 12.1312 45.009 7.51123 44.9792 2.92108C44.9792 1.9971 44.6514 1.69903 43.6976 1.60962C43.1909 1.57981 42.714 1.57981 42.2073 1.60962C41.6708 1.63942 41.5813 1.34136 41.5813 0.894269C41.6111 0.447177 41.6409 0.059698 42.2371 0.0895041C44.2937 0.11931 46.3801 0.11931 48.4367 0.149116C48.7944 0.149116 49.1521 0.178922 49.48 0.11931C50.1357 0.0298918 50.3443 0.268341 50.3145 0.894269C50.3145 1.55 50.0165 1.63942 49.4203 1.63942C48.7646 1.63942 48.0791 1.66923 47.5128 1.93748C47.2147 2.08651 47.0359 2.74225 47.006 3.18934C46.9464 4.70945 46.9762 6.22956 46.9464 7.74967C46.9166 10.462 46.9166 13.1446 46.8868 15.8569C46.857 18.8972 45.5455 21.1922 42.8928 22.7123C41.2833 23.6363 39.4949 23.7854 37.7065 23.7257C36.4249 23.6959 35.0836 23.5469 33.8318 23.219C31.8347 22.6527 30.255 21.3711 29.5695 19.3741C29.1224 18.1222 28.8541 16.7511 28.8243 15.4098C28.7349 11.4456 28.7647 7.45161 28.7647 3.4874C28.7647 2.17593 28.2282 1.60962 26.9167 1.66923C26.6783 1.66923 26.41 1.66923 26.1716 1.63942C25.8139 1.63942 25.337 1.90768 25.2476 1.25194C25.1582 0.417371 25.337 0.149116 26.112 0.149116C29.6291 0.11931 33.176 0.149116 36.6931 0.149116C37.3787 0.149116 37.2296 0.685626 37.1998 1.0433C37.17 1.25194 36.872 1.55 36.6633 1.57981C36.097 1.69903 35.4711 1.63942 34.9048 1.75865C34.1894 1.90768 33.951 2.41438 33.951 3.12973C34.0106 5.27577 34.0106 7.48142 34.0106 9.71688Z" fill="black"/>
<path d="M61.4894 0.0298061C63.3672 0.0298061 65.2449 0.0596122 67.0929 0C67.689 0 67.5698 0.357673 67.5996 0.68554C67.6294 1.04321 67.7189 1.4605 67.1525 1.52011C66.6458 1.57972 66.1093 1.60953 65.6026 1.72875C64.9171 1.90759 64.6488 2.65274 64.9171 3.33828C66.6458 7.45153 68.3746 11.535 70.1033 15.6482C70.1928 15.8568 70.3418 16.0059 70.4908 16.1847C70.5504 16.0059 70.6399 15.7972 70.6995 15.6184C71.6235 13.0849 72.5474 10.5514 73.4714 8.01784C73.9781 6.58715 74.4848 5.18626 74.9915 3.75557C75.081 3.51712 75.1108 3.24887 75.1108 2.98061C75.1406 1.9374 74.5445 1.43069 73.2926 1.49031C73.084 1.49031 72.9051 1.52011 72.6965 1.52011C71.7725 1.54992 71.6235 1.40089 71.8023 0.506704C71.8321 0.327867 72.16 0.0298061 72.3388 0.0298061C74.9617 0.0298061 77.6145 0.0596122 80.2374 0.119224C80.4461 0.119224 80.7441 0.417286 80.7739 0.655734C80.8633 1.01341 80.8633 1.52011 80.2672 1.52011C78.2702 1.57972 77.227 2.71236 76.6011 4.50072C74.8127 9.59757 72.9051 14.6944 71.0571 19.7614C70.6697 20.8047 70.461 22.0267 70.0139 23.0401C69.8649 23.368 69.7159 23.9343 68.8217 23.9343C68.1659 23.9343 67.4208 24.292 67.0333 23.3382C66.1093 21.0729 65.3046 18.5394 64.3508 16.3039C63.1585 13.4127 61.9365 10.4917 60.7144 7.60056C60.2077 6.37851 59.701 5.12665 59.1645 3.9046C58.5386 2.47391 57.3761 1.72875 55.856 1.60953C55.2003 1.54992 55.0215 1.22205 55.0811 0.625928C55.1407 -0.0298062 55.5878 0.0894183 55.9752 0.0894183C57.853 0.0596122 59.6712 0.0596122 61.4894 0.0298061Z" fill="black"/>
<path d="M20.1191 15.5891C20.0595 15.4698 19.8509 15.4102 19.7018 15.4102C19.5528 15.4102 19.374 15.5891 19.2547 15.5593C18.7182 15.3506 18.5692 15.6785 18.45 16.0958C18.2711 16.6919 18.1221 17.2582 17.9433 17.8543C17.2279 20.0004 15.4098 20.6561 13.5916 21.282C12.9955 21.4907 12.3695 21.6099 11.7436 21.6099C10.9686 21.6099 10.1639 21.6397 9.38892 21.6397C9.32931 21.6397 8.97164 21.3416 8.97164 21.282C8.67358 20.6859 8.70338 19.9408 8.70338 19.4937L8.7928 2.86185C8.7928 2.44457 8.94183 1.84845 9.15047 1.78883C9.80621 1.61 10.5514 1.58019 11.2369 1.58019C11.9821 1.58019 12.0119 1.16291 12.0119 0.626396C12.0119 0.0600795 11.6542 0.0302734 11.2667 0.0302734C7.839 0.0302734 4.4113 0.0302734 0.983601 0.0302734C0.745153 0.0600796 0 -0.0293388 0 0.298528C0 0.656202 0 0.894651 0 1.31194C0 1.46097 0.357673 1.55039 0.566316 1.58019C1.07302 1.61 1.54992 1.55039 2.05662 1.55039C2.86139 1.55039 3.21906 1.84845 3.24886 2.62341L3.30848 20.0004C3.30848 20.5667 3.27867 21.1926 2.62294 21.3416C2.02681 21.4907 1.37108 21.5205 0.745153 21.5205C0.0298061 21.5205 0 21.9378 0 22.4743C0 23.0704 0.327867 23.1002 0.774959 23.1002L19.4932 23.0704C19.9403 23.0704 20.1489 22.9512 20.1489 22.4445C20.1489 20.3879 20.1787 18.3312 20.1787 16.2746C20.2085 16.0362 20.2085 15.7679 20.1191 15.5891Z" fill="black"/>
</svg>
