<svg width="160" height="40" viewBox="0 0 160 40" fill="none" xmlns="http://www.w3.org/2000/svg">
<path d="M113.904 19.5647C113.904 16.8524 113.904 14.14 113.904 11.4277C113.904 9.99697 113.576 9.57968 112.145 9.52007C111.817 9.49026 111.519 9.52007 111.191 9.54988C110.744 9.57968 110.565 9.37104 110.535 8.95375C110.476 8.05957 110.535 8.02976 111.459 8.05957C115.245 8.08938 119.06 8.08938 122.845 8.05957C124.813 8.05957 126.78 8.11918 128.658 8.86434C129.85 9.34123 130.982 9.99697 131.579 11.1594C132.592 13.0968 132.294 16.0178 129.701 17.6571C128.389 18.4619 127.018 18.9984 125.468 19.1176C125.319 19.1176 125.2 19.2071 125.051 19.2369C125.17 19.2965 125.289 19.4157 125.409 19.4455C127.376 20.1012 128.21 21.7406 128.866 23.5289C129.433 25.0491 130.029 26.5394 130.774 27.9701C131.281 28.9835 132.354 28.894 132.801 27.8508C133.039 27.3143 133.069 26.5096 133.158 25.9134C133.218 25.4663 133.337 25.3769 133.874 25.4067C134.351 25.4365 134.738 25.3173 134.708 25.9134C134.649 27.6124 134.112 29.2517 132.979 30.5632C131.698 32.0535 128.091 32.0237 126.72 30.3844C125.647 29.0729 125.17 27.6124 124.872 26.0029C124.634 24.751 124.306 23.5289 124.067 22.2771C123.978 21.7704 124.067 21.1445 123.501 20.906C122.786 20.6079 122.041 20.3695 121.266 20.1907C120.759 20.0714 120.193 20.0714 119.686 20.131C119.477 20.1609 119.179 20.4589 119.179 20.6378C119.12 22.9626 119.09 25.3173 119.09 27.6422C119.09 29.1325 119.746 29.669 121.236 29.5796C122.309 29.4902 122.547 29.669 122.428 30.4738C122.398 30.6824 122.07 31.0103 121.862 31.0103C118.345 31.0401 114.798 31.0103 111.281 31.0103C110.744 31.0103 110.625 30.6824 110.655 30.2353C110.684 29.7882 110.804 29.5498 111.34 29.5498C113.933 29.5498 113.963 29.52 113.993 26.897C113.933 24.4529 113.933 22.0088 113.904 19.5647ZM119.06 14.289C119.09 14.289 119.09 14.289 119.12 14.289C119.12 15.4515 119.09 16.6437 119.149 17.8062C119.149 18.0148 119.358 18.3725 119.477 18.4023C120.997 18.5811 122.518 18.4321 123.978 17.985C124.842 17.7168 125.498 17.1802 125.826 16.3755C126.571 14.5871 126.959 12.7987 125.826 11.0402C125.558 10.6229 125.111 10.146 124.693 10.0566C123.292 9.78833 121.862 9.60949 120.461 9.54988C119.447 9.49026 119.149 9.87774 119.12 10.8912C119.03 12.0238 119.06 13.1564 119.06 14.289Z" fill="black"/>
<path d="M59.2987 17.7169C59.2987 19.8629 59.2391 22.0388 59.3285 24.1848C59.3583 25.2578 59.5669 26.3308 59.9246 27.3443C60.6101 29.2816 62.2495 29.8778 64.1571 30.0566C67.7636 30.3547 70.0289 27.9702 70.2077 24.7213C70.4462 20.1312 70.2971 15.5112 70.2673 10.9211C70.2673 9.9971 69.9395 9.69903 68.9857 9.60962C68.479 9.57981 68.0021 9.57981 67.4954 9.60962C66.9588 9.63942 66.8694 9.34136 66.8694 8.89427C66.8992 8.44718 66.929 8.0597 67.5252 8.0895C69.5818 8.11931 71.6682 8.11931 73.7248 8.14912C74.0825 8.14912 74.4402 8.17892 74.768 8.11931C75.4238 8.02989 75.6324 8.26834 75.6026 8.89427C75.6026 9.55 75.3046 9.63942 74.7084 9.63942C74.0527 9.63942 73.3672 9.66923 72.8008 9.93748C72.5028 10.0865 72.3239 10.7422 72.2941 11.1893C72.2345 12.7095 72.2643 14.2296 72.2345 15.7497C72.2047 18.462 72.2047 21.1446 72.1749 23.8569C72.1451 26.8972 70.8336 29.1922 68.1809 30.7123C66.5714 31.6363 64.783 31.7854 62.9946 31.7257C61.713 31.6959 60.3717 31.5469 59.1198 31.219C57.1228 30.6527 55.5431 29.3711 54.8576 27.3741C54.4105 26.1222 54.1422 24.7511 54.1124 23.4098C54.023 19.4456 54.0528 15.4516 54.0528 11.4874C54.0528 10.1759 53.5163 9.60962 52.2048 9.66923C51.9664 9.66923 51.6981 9.66923 51.4597 9.63942C51.102 9.63942 50.6251 9.90768 50.5357 9.25194C50.4463 8.41737 50.6251 8.14912 51.4001 8.14912C54.9172 8.11931 58.4641 8.14912 61.9812 8.14912C62.6668 8.14912 62.5177 8.68563 62.4879 9.0433C62.4581 9.25194 62.1601 9.55 61.9514 9.57981C61.3851 9.69903 60.7592 9.63942 60.1929 9.75865C59.4775 9.90768 59.2391 10.4144 59.2391 11.1297C59.2987 13.2758 59.2987 15.4814 59.2987 17.7169Z" fill="black"/>
<path d="M86.7799 8.02981C88.6577 8.02981 90.5355 8.05961 92.3835 8C92.9796 8 92.8604 8.35767 92.8902 8.68554C92.92 9.04321 93.0094 9.4605 92.4431 9.52011C91.9364 9.57972 91.3999 9.60953 90.8931 9.72875C90.2076 9.90759 89.9394 10.6527 90.2076 11.3383C91.9364 15.4515 93.6651 19.535 95.3939 23.6482C95.4833 23.8568 95.6323 24.0059 95.7813 24.1847C95.841 24.0059 95.9304 23.7972 95.99 23.6184C96.914 21.0849 97.838 18.5514 98.762 16.0178C99.2687 14.5871 99.7754 13.1863 100.282 11.7556C100.371 11.5171 100.401 11.2489 100.401 10.9806C100.431 9.9374 99.835 9.43069 98.5831 9.49031C98.3745 9.49031 98.1956 9.52011 97.987 9.52011C97.063 9.54992 96.914 9.40089 97.0928 8.5067C97.1226 8.32787 97.4505 8.02981 97.6293 8.02981C100.252 8.02981 102.905 8.05961 105.528 8.11922C105.737 8.11922 106.035 8.41729 106.064 8.65573C106.154 9.01341 106.154 9.52011 105.558 9.52011C103.561 9.57972 102.518 10.7124 101.892 12.5007C100.103 17.5976 98.1956 22.6944 96.3477 27.7615C95.9602 28.8047 95.7515 30.0267 95.3044 31.0401C95.1554 31.368 95.0064 31.9343 94.1122 31.9343C93.4565 31.9343 92.7113 32.292 92.3238 31.3382C91.3998 29.0729 90.5951 26.5394 89.6413 24.3039C88.449 21.4127 87.227 18.4917 86.0049 15.6006C85.4982 14.3785 84.9915 13.1267 84.455 11.9046C83.8291 10.4739 82.6667 9.72875 81.1465 9.60953C80.4908 9.54992 80.312 9.22205 80.3716 8.62593C80.4312 7.97019 80.8783 8.08942 81.2658 8.08942C83.1436 8.05961 84.9617 8.05961 86.7799 8.02981Z" fill="black"/>
<path d="M45.4092 23.5886C45.3495 23.4694 45.1409 23.4097 44.9919 23.4097C44.8428 23.4097 44.664 23.5886 44.5448 23.5588C44.0083 23.3501 43.8592 23.678 43.74 24.0953C43.5612 24.6914 43.4121 25.2577 43.2333 25.8538C42.518 27.9999 40.6998 28.6556 38.8816 29.2815C38.2855 29.4902 37.6596 29.6094 37.0336 29.6094C36.2587 29.6094 35.4539 29.6392 34.679 29.6392C34.6193 29.6392 34.2617 29.3412 34.2617 29.2815C33.9636 28.6854 33.9934 27.9403 33.9934 27.4932L34.0828 10.8614C34.0828 10.4441 34.2319 9.84796 34.4405 9.78835C35.0962 9.60951 35.8414 9.5797 36.5269 9.5797C37.2721 9.5797 37.3019 9.16242 37.3019 8.62591C37.3019 8.05959 36.9442 8.02979 36.5567 8.02979C33.129 8.02979 29.7013 8.02979 26.2736 8.02979C26.0352 8.05959 25.29 7.97017 25.29 8.29804C25.29 8.65571 25.29 8.89416 25.29 9.31145C25.29 9.46048 25.6477 9.5499 25.8564 9.5797C26.3631 9.60951 26.84 9.5499 27.3467 9.5499C28.1514 9.5499 28.5091 9.84796 28.5389 10.6229L28.5985 27.9999C28.5985 28.5662 28.5687 29.1921 27.913 29.3412C27.3169 29.4902 26.6611 29.52 26.0352 29.52C25.3198 29.52 25.29 29.9373 25.29 30.4738C25.29 31.0699 25.6179 31.0997 26.065 31.0997L44.7832 31.0699C45.2303 31.0699 45.439 30.9507 45.439 30.444C45.439 28.3874 45.4688 26.3307 45.4688 24.2741C45.4986 24.0357 45.4986 23.7674 45.4092 23.5886Z" fill="black"/>
</svg>
