<svg width="9" height="14" viewBox="0 0 9 14" fill="none" xmlns="http://www.w3.org/2000/svg">
<path d="M4.14645 13.3536C4.34171 13.5488 4.65829 13.5488 4.85355 13.3536L8.03553 10.1716C8.2308 9.97631 8.2308 9.65973 8.03553 9.46447C7.84027 9.2692 7.52369 9.2692 7.32843 9.46447L4.5 12.2929L1.67157 9.46447C1.47631 9.2692 1.15973 9.2692 0.964466 9.46447C0.769204 9.65973 0.769204 9.97631 0.964466 10.1716L4.14645 13.3536ZM5 1C5 0.723858 4.77614 0.5 4.5 0.5C4.22386 0.5 4 0.723858 4 1L5 1ZM5 13L5 1L4 1L4 13L5 13Z" fill="black"/>
</svg>
