<svg width="20" height="26" viewBox="0 0 20 26" fill="none" xmlns="http://www.w3.org/2000/svg">
<path d="M0.963379 7.64209H19.0362V24.6251H0.963379V7.64209Z" stroke="black"/>
<mask id="path-2-inside-1_401_2917" fill="white">
<path d="M14.6224 9.59402V5.57292C14.6224 4.32696 14.1343 3.13202 13.2657 2.25099C12.397 1.36996 11.2189 0.875 9.99038 0.875C8.76187 0.875 7.58371 1.36996 6.71508 2.25099C5.84641 3.13202 5.3584 4.32696 5.3584 5.57292V9.59402"/>
</mask>
<path d="M13.2657 2.25099L12.5536 2.95307L12.5536 2.95307L13.2657 2.25099ZM6.71508 2.25099L7.42716 2.95309L7.42718 2.95307L6.71508 2.25099ZM15.6224 9.59402V5.57292H13.6224V9.59402H15.6224ZM15.6224 5.57292C15.6224 4.06625 15.0323 2.61851 13.9778 1.54891L12.5536 2.95307C13.2363 3.64552 13.6224 4.58766 13.6224 5.57292H15.6224ZM13.9778 1.54891C12.9227 0.478795 11.4887 -0.125 9.99038 -0.125V1.875C10.9491 1.875 11.8714 2.26112 12.5536 2.95307L13.9778 1.54891ZM9.99038 -0.125C8.49206 -0.125 7.05803 0.478795 6.00298 1.54891L7.42718 2.95307C8.10939 2.26112 9.03167 1.875 9.99038 1.875V-0.125ZM6.00299 1.5489C4.94839 2.61851 4.3584 4.06627 4.3584 5.57292H6.3584C6.3584 4.58765 6.74444 3.64552 7.42716 2.95309L6.00299 1.5489ZM4.3584 5.57292V9.59402H6.3584V5.57292H4.3584Z" fill="black" mask="url(#path-2-inside-1_401_2917)"/>
</svg>
