<svg width="26" height="24" viewBox="0 0 26 24" fill="none" xmlns="http://www.w3.org/2000/svg">
<path d="M22.4486 12.7024L22.8062 13.0518L22.4486 12.7024C21.7035 13.4648 19.0966 16.1333 16.6763 18.6111L13.4412 21.9227L13.4412 21.9227L12.9997 22.3746L12.5583 21.9227L9.32347 18.6111L8.96579 18.9605L9.32347 18.6111C6.90322 16.1334 4.29656 13.4649 3.55148 12.7024C2.91557 12.0516 1.76785 10.5347 1.28712 8.73129L1.28711 8.73128C0.829701 7.0154 0.965293 5.06096 2.80536 3.17753C3.73562 2.22534 4.66724 1.73422 5.55521 1.5296C6.44664 1.32418 7.32734 1.4 8.16279 1.63325C9.90779 2.12045 11.3837 3.2877 12.0212 3.94017C12.0212 3.94018 12.0212 3.94018 12.0212 3.94019L12.6417 4.57536L12.9993 4.94148L13.357 4.57535L13.9775 3.94014C14.6149 3.28761 16.0907 2.12037 17.8359 1.63321L17.7016 1.15235L17.8359 1.63321C18.6713 1.39998 19.552 1.32419 20.4435 1.52966C21.3316 1.73432 22.2633 2.22552 23.1938 3.17784C25.0343 5.06153 25.1699 7.01596 24.7127 8.73164C24.2322 10.5348 23.0846 12.0516 22.4486 12.7024Z" stroke="black"/>
</svg>
