<svg width="22" height="22" viewBox="0 0 22 22" fill="none" xmlns="http://www.w3.org/2000/svg">
<path fill-rule="evenodd" clip-rule="evenodd" d="M18.1881 9.66242C18.1881 14.371 14.371 18.1881 9.66242 18.1881C4.95382 18.1881 1.13675 14.371 1.13675 9.66242C1.13675 4.95382 4.95382 1.13675 9.66242 1.13675C14.371 1.13675 18.1881 4.95382 18.1881 9.66242ZM16.885 16.0811C18.4028 14.3744 19.3248 12.1261 19.3248 9.66242C19.3248 4.32601 14.9988 0 9.66242 0C4.32601 0 0 4.32601 0 9.66242C0 14.9988 4.32601 19.3248 9.66242 19.3248C12.1261 19.3248 14.3745 18.4028 16.0812 16.8849L21.1965 22.0002L22.0003 21.1964L16.885 16.0811Z" fill="black"/>
</svg>
